Coordinates
version=1
nRows=16
nColumns=33
inDegrees=yes

Units are S.I. units (second, meters, Newtons, ...)
Angles are in degrees.

endheader
time	ground_thorax_rot_x	ground_thorax_rot_y	ground_thorax_rot_z	ground_thorax_tx	ground_thorax_ty	ground_thorax_tz	clav_prot_r	clav_elev_r	scapula_abduction_r	scapula_elevation_r	scapula_upward_rot_r	scapula_winging_r	shoulder_elv_r	plane_of_elev_r	axial_rot_r	elbow_flexion_r	pro_sup_r	wrist_flex_r	wrist_dev_r	clav_prot_l	clav_elev_l	scapula_abduction_l	scapula_elevation_l	scapula_upward_rot_l	scapula_winging_l	shoulder_elv_l	plane_of_elev_l	axial_rot_l	elbow_flexion_l	pro_sup_l	wrist_flex_l	wrist_dev_l
     10.74000000	    -33.83475080	    -23.04428774	     29.80040849	    -84.87816036	    833.61437713	    -47.25135273	     27.10333949	    -45.00000000	     38.86012256	    -45.00000000	    -45.00000000	  -2626.45800764	  -4603.18739263	     20.75189701	   -145.15771443	   1799.25121106	   -203.04409743	     11.94433477	     15.62286756	     -0.51206931	     32.55563320	    -31.58344138	    -45.00000000	    -45.00000000	  -5672.81148235	  -2081.96036083	     27.33956838	     51.64063228	    -10.26740078	   -324.51350552	     15.24820682	    -17.56046228
     10.75000000	    -33.97447361	    -22.93764052	     29.45844552	    -86.10638340	    835.34378835	    -47.35853487	     27.07440238	    -45.00000000	     38.76131076	    -45.00000000	    -45.00000000	  -2626.52612531	  -4603.21900374	     20.86577078	   -145.33441436	   1799.22896756	   -203.61248333	     12.00058232	     15.58389803	     -0.49927169	     32.60413081	    -31.73970497	    -45.00000000	    -45.00000000	  -5672.60538021	  -2081.94187788	     27.48987282	     51.94866783	    -10.26180254	   -324.77079933	     15.36466393	    -17.68174711
     10.76000000	    -34.06315504	    -22.81045353	     29.05683855	    -87.26059615	    837.02816792	    -47.44688742	     27.00055765	    -45.00000000	     38.84383197	    -45.00000000	    -45.00000000	  -2626.58589895	  -4603.29205898	     20.98558308	   -145.52384769	   1799.20766023	   -204.07374843	     12.01428688	     15.58734119	     -0.51971809	     32.59684306	    -31.86783277	    -45.00000000	    -45.00000000	  -5672.44239428	  -2081.96252511	     27.59716161	     52.27375102	    -10.26085908	   -324.95147667	     15.50062419	    -17.84030973
     10.77000000	    -34.04943576	    -22.77739689	     28.89619970	    -88.34397697	    838.66363823	    -47.51447216	     26.90545907	    -45.00000000	     38.90565581	    -45.00000000	    -45.00000000	  -2626.66053508	  -4603.21867529	     20.95617576	   -145.76723892	   1799.07658004	   -204.47635787	     12.06779344	     15.59023715	     -0.51953831	     32.64733780	    -31.90214762	    -45.00000000	    -45.00000000	  -5672.47855401	  -2081.89237531	     27.57319810	     52.44278612	    -10.21809505	   -325.06948653	     15.46914804	    -17.88812643
     10.78000000	    -34.10746970	    -22.70963135	     28.62589499	    -89.35879491	    840.24456875	    -47.56028656	     26.88238125	    -45.00000000	     38.91158219	    -45.00000000	    -45.00000000	  -2626.70377963	  -4603.22974585	     21.06153815	   -145.99465155	   1799.06007278	   -204.83073053	     12.13385618	     15.54098188	     -0.54747018	     32.67273077	    -31.99000987	    -45.00000000	    -45.00000000	  -5672.35035118	  -2081.88136212	     27.65868841	     52.63823155	    -10.21038359	   -325.12870415	     15.54705261	    -18.04853904
     10.79000000	    -34.09741992	    -22.64203331	     28.43972554	    -90.30420822	    841.76141706	    -47.58428616	     26.78161951	    -45.00000000	     38.97530437	    -45.00000000	    -45.00000000	  -2626.77235975	  -4603.18462215	     21.07927853	   -146.26015607	   1798.96395450	   -205.12039205	     12.20217538	     15.53710566	     -0.54177316	     32.71138339	    -32.04819989	    -45.00000000	    -45.00000000	  -5672.34303963	  -2081.87140139	     27.67331949	     52.78668144	    -10.19355033	   -325.14055655	     15.53594935	    -18.16466441
     10.80000000	    -34.10862070	    -22.59829085	     28.26772045	    -91.18029564	    843.20499404	    -47.58696635	     26.74664025	    -45.00000000	     38.96935928	    -45.00000000	    -45.00000000	  -2626.82821978	  -4603.14778937	     21.15292628	   -146.52282427	   1798.92414144	   -205.37359694	     12.28570968	     15.48342765	     -0.57988690	     32.73077214	    -32.09141031	    -45.00000000	    -45.00000000	  -5672.27610653	  -2081.85997441	     27.72788175	     52.90292989	    -10.19503178	   -325.11377770	     15.57170187	    -18.32686808
     10.81000000	    -34.11780099	    -22.61809843	     28.13335364	    -91.98609321	    844.56518725	    -47.56875996	     26.66175398	    -45.00000000	     39.01713447	    -45.00000000	    -45.00000000	  -2626.85430562	  -4603.10313029	     21.18064041	   -146.77673860	   1798.88392449	   -205.58211742	     12.34374203	     15.47811692	     -0.56976421	     32.76963381	    -32.13487838	    -45.00000000	    -45.00000000	  -5672.29947902	  -2081.84343484	     27.73502109	     52.97402908	    -10.16675227	   -325.06464627	     15.52280300	    -18.46060314
     10.82000000	    -34.12517183	    -22.56495660	     28.01263618	    -92.72584622	    845.83938375	    -47.52893919	     26.61601427	    -45.00000000	     39.00378142	    -45.00000000	    -45.00000000	  -2626.91675028	  -4603.07204256	     21.26403326	   -147.01639368	   1798.79363592	   -205.77519245	     12.44875932	     15.43532181	     -0.61990098	     32.78477857	    -32.16900314	    -45.00000000	    -45.00000000	  -5672.21058240	  -2081.83340038	     27.77310763	     53.03940447	    -10.15037941	   -324.99340962	     15.55238210	    -18.66157657
     10.83000000	    -34.07801199	    -22.56747818	     27.97827489	    -93.39462565	    847.01023796	    -47.46642611	     26.53381473	    -45.00000000	     39.06405599	    -45.00000000	    -45.00000000	  -2626.94674676	  -4603.01563663	     21.26353099	   -147.30455302	   1798.72258551	   -205.94448455	     12.51056763	     15.45988605	     -0.60117413	     32.80949809	    -32.16317257	    -45.00000000	    -45.00000000	  -5672.24943992	  -2081.80733205	     27.74729164	     53.05718114	    -10.12294703	   -324.90607052	     15.46012327	    -18.79772054
     10.84000000	    -34.09716646	    -22.50179043	     27.86100457	    -93.99773377	    848.07624351	    -47.37987674	     26.51586342	    -45.00000000	     39.04118659	    -45.00000000	    -45.00000000	  -2627.04986778	  -4603.02403524	     21.38520952	   -147.54876592	   1798.63363280	   -206.09366731	     12.61682461	     15.41493903	     -0.69742400	     32.80573512	    -32.20475099	    -45.00000000	    -45.00000000	  -5672.14140250	  -2081.84666594	     27.83684403	     53.10434590	    -10.12446571	   -324.79875193	     15.54023102	    -19.05911508
     10.85000000	    -34.05168937	    -22.61240878	     27.94449313	    -94.53892821	    849.03551247	    -47.26947033	     26.38088890	    -45.00000000	     39.07953586	    -45.00000000	    -45.00000000	  -2627.01153615	  -4602.95885642	     21.27282727	   -147.87923837	   1798.54405063	   -206.21272939	     12.66309250	     15.50191842	     -0.59302382	     32.84518083	    -32.13766179	    -45.00000000	    -45.00000000	  -5672.25902018	  -2081.78701567	     27.70601693	     53.03502904	    -10.05455217	   -324.68588564	     15.30072932	    -19.12514531
     10.86000000	    -34.18108487	    -22.49157217	     27.73057378	    -95.01800434	    849.87818925	    -47.13844603	     26.46741319	    -45.00000000	     38.96975747	    -45.00000000	    -45.00000000	  -2627.21903516	  -4603.10344167	     21.60802718	   -147.98930012	   1798.50982415	   -206.30516540	     12.77232824	     15.35971830	     -0.86206903	     32.78561795	    -32.24882610	    -45.00000000	    -45.00000000	  -5672.02264485	  -2081.88860850	     27.97957555	     53.12997483	    -10.07433591	   -324.53974727	     15.63134895	    -19.58463562
     10.87000000	    -34.08625752	    -22.73251496	     27.91622585	    -95.44132534	    850.60736642	    -46.99074845	     26.32931778	    -45.00000000	     39.00388785	    -45.00000000	    -45.00000000	  -2627.04085605	  -4602.99208361	     21.45648545	   -148.19735320	   1798.53130337	   -206.34872053	     12.73278499	     15.46763906	     -0.71528842	     32.81705220	    -32.03361177	    -45.00000000	    -45.00000000	  -5672.23690414	  -2081.76168095	     27.69081102	     52.92576203	     -9.99911599	   -324.33098207	     15.25245540	    -19.49442110
     10.88000000	    -34.12163219	    -22.65650391	     27.75567311	    -95.80943834	    851.21352714	    -46.83314091	     26.26529006	    -45.00000000	     39.15418244	    -45.00000000	    -45.00000000	  -2627.11719458	  -4603.11962054	     21.49997915	   -148.36090829	   1798.42310687	   -206.39943177	     12.94121927	     15.45254671	     -0.80985681	     32.84084232	    -32.12207278	    -45.00000000	    -45.00000000	  -5672.09891377	  -2081.93254407	     27.78575363	     52.95880538	    -10.06349129	   -324.16235966	     15.30254160	    -19.94004764
     10.89000000	    -34.06162000	    -22.84251655	     27.95980387	    -96.12118357	    851.68609164	    -46.67399337	     26.19372613	    -45.00000000	     39.01468309	    -45.00000000	    -45.00000000	  -2627.04957062	  -4602.96680953	     21.48795388	   -148.57821031	   1798.36686088	   -206.36794681	     12.85683633	     15.54092523	     -0.73706251	     32.81874484	    -31.94582175	    -45.00000000	    -45.00000000	  -5672.33333725	  -2081.82902642	     27.60544794	     52.76962757	     -9.97089623	   -323.91787957	     15.03238551	    -19.84231439
